Coordinates
version=1
nRows=18
nColumns=22
inDegrees=yes

Units are S.I. units (second, meters, Newtons, ...)
If the header above contains a line with 'inDegrees', this indicates whether rotational values are in degrees (yes) or radians (no).

endheader
time	pelvis_tilt	pelvis_list	pelvis_rotation	pelvis_tx	pelvis_ty	pelvis_tz	hip_flexion_r	hip_adduction_r	hip_rotation_r	knee_angle_r	ankle_angle_r	subtalar_angle_r	hip_flexion_l	hip_adduction_l	hip_rotation_l	knee_angle_l	ankle_angle_l	subtalar_angle_l	lumbar_extension	lumbar_bending	lumbar_rotation
      1.70000000	     -1.17410040	     -0.25619759	    -33.21197494	     -0.89090355	      0.90236890	     -0.40665081	      5.46570688	     -2.17472167	      4.66064074	    -19.38917690	     18.22806018	      0.55874510	      2.52025106	      0.14240688	    -12.23590432	    -17.96158057	     18.07564425	     -3.95060005	     -8.34692347	     -1.42307951	      4.53916611
      1.71000000	     -1.18528502	     -0.33306014	    -33.45567504	     -0.89060317	      0.90245040	     -0.40769689	      6.09876938	     -2.09677846	      5.09902231	    -20.47449149	     18.08861805	      0.61260992	      2.51065082	      0.15448258	    -12.42883287	    -18.01058964	     18.11644513	     -4.05341944	     -8.53498654	     -1.36479966	      4.61681711
      1.72000000	     -1.21148303	     -0.41353497	    -33.69856270	     -0.89033311	      0.90253902	     -0.40874696	      6.78032386	     -1.99833340	      5.53025198	    -21.61779784	     17.90615273	      0.70501435	      2.52387020	      0.15470152	    -12.60406130	    -18.07960308	     18.14713781	     -4.18446385	     -8.71293829	     -1.29314719	      4.69128921
      1.73000000	     -1.26148103	     -0.49914564	    -33.93249143	     -0.89008153	      0.90262439	     -0.40980210	      7.51452261	     -1.87310416	      5.93559869	    -22.81945159	     17.67986130	      0.84687066	      2.56550435	      0.13669092	    -12.75741037	    -18.16271328	     18.17069234	     -4.35011349	     -8.87336037	     -1.20216822	      4.75257317
      1.74000000	     -1.34141601	     -0.58829310	    -34.14975657	     -0.88982913	      0.90268863	     -0.41086618	      8.31174298	     -1.72430401	      6.27752000	    -24.08577370	     17.40403707	      1.06194699	      2.64025564	      0.09712733	    -12.88776328	    -18.25798425	     18.19780519	     -4.56381397	     -9.00841542	     -1.08521804	      4.79765496
      1.75000000	     -1.40606348	     -0.68601370	    -34.38924781	     -0.88960392	      0.90279973	     -0.41188277	      9.11768966	     -1.56036516	      6.65174065	    -25.39232347	     17.06722759	      1.25202816	      2.69035410	      0.06013338	    -13.02317739	    -18.34868048	     18.21267647	     -4.73966220	     -9.16623685	     -0.97429736	      4.85350318
      1.76000000	     -1.51632680	     -0.78319182	    -34.59840153	     -0.88934836	      0.90285191	     -0.41291333	     10.00041064	     -1.37567282	      6.89973760	    -26.76277745	     16.69189954	      1.51024818	      2.79417572	     -0.00560520	    -13.13171182	    -18.45912284	     18.24425720	     -4.95877030	     -9.27650768	     -0.82873944	      4.87933283
      1.77000000	     -1.61771119	     -0.88447988	    -34.83020910	     -0.88912757	      0.90293464	     -0.41388527	     10.89179039	     -1.17308502	      7.17846071	    -28.15492054	     16.25677540	      1.68816776	      2.87807478	     -0.07012464	    -13.24763732	    -18.55819045	     18.25771104	     -5.12605717	     -9.40203223	     -0.69128833	      4.92743153
      1.78000000	     -1.74001242	     -0.97555133	    -35.04083861	     -0.88886063	      0.90296746	     -0.41484253	     11.82875497	     -0.97352098	      7.34663828	    -29.58004698	     15.79710537	      1.84162803	      2.98957315	     -0.14022724	    -13.34752038	    -18.66583832	     18.28601775	     -5.29548482	     -9.49419768	     -0.54520391	      4.94930330
      1.79000000	     -1.86006337	     -1.05615074	    -35.23588693	     -0.88855379	      0.90297734	     -0.41576037	     12.77843500	     -0.78592468	      7.44559171	    -31.01349228	     15.33121091	      1.92688075	      3.10168095	     -0.20229075	    -13.43680204	    -18.77143992	     18.31580135	     -5.45618560	     -9.57657210	     -0.41202766	      4.96206088
      1.80000000	     -1.97060556	     -1.12197315	    -35.41046380	     -0.88817224	      0.90296064	     -0.41663617	     13.72634454	     -0.62625766	      7.45814859	    -32.43213117	     14.88858535	      1.91810761	      3.20637038	     -0.24637311	    -13.51495530	    -18.86997838	     18.35080292	     -5.61201395	     -9.64906584	     -0.29580305	      4.95227079
      1.81000000	     -2.06351214	     -1.17215432	    -35.55341061	     -0.88769151	      0.90291959	     -0.41746846	     14.65398642	     -0.50669097	      7.37806823	    -33.81124834	     14.49688604	      1.78645808	      3.29661492	     -0.26818810	    -13.58346547	    -18.96086960	     18.39169377	     -5.77252770	     -9.71535557	     -0.20359382	      4.91675295
      1.82000000	     -2.12342937	     -1.20430615	    -35.67492897	     -0.88712790	      0.90288566	     -0.41824063	     15.53803314	     -0.43021788	      7.25806674	    -35.11958132	     14.14913128	      1.54270926	      3.34437487	     -0.24742265	    -13.60734093	    -19.01231857	     18.42161649	     -5.90040741	     -9.79054625	     -0.15233796	      4.87592363
      1.83000000	     -2.16808219	     -1.22106574	    -35.75584977	     -0.88642005	      0.90282216	     -0.41897001	     16.38176383	     -0.41126342	      7.00827905	    -36.32944816	     13.91333658	      1.15266893	      3.37798698	     -0.20496253	    -13.62548989	    -19.05671313	     18.45861449	     -6.04417940	     -9.85332150	     -0.11646898	      4.80060705
      1.84000000	     -2.18870813	     -1.25108655	    -35.79672812	     -0.88559002	      0.90279248	     -0.41963227	     17.13827301	     -0.42190917	      6.67251233	    -37.39375321	     13.78380855	      0.52140191	      3.36780043	     -0.16437093	    -13.64658783	    -19.08640979	     18.50670150	     -6.22899087	     -9.93340503	     -0.08281520	      4.69964129
      1.85000000	     -2.17232119	     -1.24719682	    -35.80882914	     -0.88461374	      0.90277636	     -0.42026489	     17.83851269	     -0.52523163	      6.23985945	    -38.31982727	     13.76074101	      0.04598779	      3.29778157	     -0.04727611	    -13.57360273	    -19.02975006	     18.50771840	     -6.31324486	    -10.01060396	     -0.10014504	      4.59896458
      1.86000000	     -2.17682884	     -1.26779909	    -35.79119066	     -0.88352334	      0.90276656	     -0.42082205	     18.46568305	     -0.62298670	      5.72315600	    -39.04494042	     13.84382963	     -0.76503598	      3.23237981	      0.01753139	    -13.56858379	    -18.99374485	     18.51901780	     -6.47892302	    -10.06991598	     -0.07249536	      4.47102633
      1.87000000	     -2.13484974	     -1.27943881	    -35.73852247	     -0.88229668	      0.90281594	     -0.42137840	     19.00021219	     -0.79946730	      5.11525383	    -39.59589010	     14.01518407	     -1.32858315	      3.08896687	      0.14562231	    -13.44094442	    -18.87951130	     18.53043598	     -6.55260816	    -10.16214838	     -0.07590709	      4.35492815
